Simulation
nRows=23
nColumns=15
endheader
time  TH_x TH_y TH_z SC_y  SC_z  SC_x  AC_y  AC_z  AC_x  GH_y  GH_z  GH_yy  EL_x  PS_y
2.6910411985018725  0.000000  0.000000  0.000000  -23.654148309697472  4.745819566986482  -4.449310123396252  56.55716541136491  10.214922488032975  6.342285446429832  -13.625554258686671  2.821972296212321  42.907232673235114  15.884303366493693  120.000000
2.7312059925093632  0.000000  0.000000  0.000000  -23.60000033108187  4.809548439896995  -4.286659346690462  57.069977764179384  10.595467420725331  6.688763452813705  -27.547708773475165  0.7930601501478161  59.263171159702  16.63509151637621  120.000000
2.771370786516854  0.000000  0.000000  0.000000  -23.68194491908927  4.908130776331904  -4.087227797337683  57.49700331736634  10.93586043022634  6.975965500861468  -174.0760447864096  1.2278523263130394  -151.9762858860933  17.30134913044228  120.000000
2.8115355805243447  0.000000  0.000000  0.000000  -23.858302863020622  5.030506296443069  -3.8783961791301613  57.83681410601211  11.224383269758135  7.202154563662449  179.48606181568292  3.0402695584679726  -143.50441812472212  17.85677195141927  120.000000
2.851700374531835  0.000000  0.000000  0.000000  -24.092817806747274  5.167411412367652  -3.6751790063873617  58.093813652045895  11.459344265903523  7.370319752574728  179.08048015705407  4.751789200900167  -141.25407972822418  18.285308850745004  120.000000
2.8918651685393257  0.000000  0.000000  0.000000  -24.356984046429368  5.310878985229009  -3.482657200291056  58.277248095505925  11.647244323860928  7.488129360646119  179.84597292944946  6.344247982591007  -140.35462659175684  18.583030822534983  120.000000
2.9320299625468165  0.000000  0.000000  0.000000  -24.63022682662602  5.4535016622360635  -3.299626926459547  58.39735667491509  11.797462163603832  7.567700802758213  -178.97487732949196  7.808460184295854  -140.04145196656017  18.756443540109622  120.000000
2.972194756554307  0.000000  0.000000  0.000000  -24.897693712339002  5.5900162748651185  -3.1227688452491322  58.46279945400458  11.918974406030628  7.620536719366961  -177.62427042133248  9.137448606810626  -140.0663709189718  18.81979643817201  120.000000
3.012359550561798  0.000000  0.000000  0.000000  -25.149451556015308  5.719814063054288  -2.950407161587273  58.48179875432971  12.019255398393408  7.6527644575451355  -176.20657496898744  10.327118126666017  -140.31872900028824  18.792770850425462  120.000000
3.0525243445692882  0.000000  0.000000  0.000000  -25.379666877151145  5.845033452462773  -2.783808180958874  58.46241428198418  12.102788081349493  7.6672758518692055  -174.78573491522732  11.377044088822501  -140.72751719544223  18.698271777244095  120.000000
3.092689138576779  0.000000  0.000000  0.000000  -25.584463453529956  5.9662298244337  -2.626188367234586  58.41114465384455  12.171088198834584  7.6668002265299355  -173.40496457312557  12.289590875764228  -141.2414181485704  18.56032462822049  120.000000
3.1328539325842697  0.000000  0.000000  0.000000  -25.761557615266426  6.082573031669163  -2.4814662698998333  58.33359599187338  12.223520991454528  7.654385818529688  -172.09775479088395  13.068535474971009  -141.8183050241896  18.40073647078959  120.000000
3.1730187265917604  0.000000  0.000000  0.000000  -25.90985839076251  6.19284457484418  -2.353591398370767  58.23475804865887  12.258372234325048  7.633152462841212  -170.89016638612503  13.717801400840322  -142.42321841713698  18.236912075673263  120.000000
3.2131835205992507  0.000000  0.000000  0.000000  -26.028721417727265  6.295786263344117  -2.246165741418365  58.119554756352855  12.273776250315212  7.605812519470423  -169.80367502809088  14.240692876467506  -143.02578389818586  18.080333372473785  120.000000
3.2533483146067415  0.000000  0.000000  0.000000  -26.117767716258275  6.390495346388941  -2.1621856321390642  57.99290695926694  12.267990324704282  7.5747404433257435  -168.8564517938164  14.639621006085777  -143.59910565473825  17.936714174445736  120.000000
3.293513108614232  0.000000  0.000000  0.000000  -26.17682728046494  6.476323122475241  -2.1040453805303643  57.8595879696505  12.23956191216609  7.5419114543836905  -168.06292987369247  14.916100357433578  -144.12042712181054  17.80716235984685  120.000000
3.333677902621723  0.000000  0.000000  0.000000  -26.20599807847666  6.552726913214834  -2.07351490329006  57.72367327790307  12.187291350716562  7.509192720351724  -167.43252243518006  15.071026381380795  -144.57235734425518  17.689843392368036  120.000000
3.3738426966292137  0.000000  0.000000  0.000000  -26.205797658677717  6.619196342755608  -2.0717202149747216  57.58850490047782  12.110218963422904  7.478215833512734  -166.9707818832563  15.104846584885873  -144.94188202178498  17.581815038694366  120.000000
3.414007490636704  0.000000  0.000000  0.000000  -26.17718273954104  6.675389997439672  -2.0992335725089006  57.45667144010792  12.007728567439022  7.45037251251642  -166.67986440112486  15.017665169903369  -145.2199369976474  17.48044645787302  120.000000
3.4541722846441947  0.000000  0.000000  0.000000  -26.121440505971897  6.721164260324125  -2.1561474180460323  57.33001645095549  11.879801154528382  7.426730346916844  -166.55919803421884  14.80925727155905  -145.4008795693624  17.384133086868435  120.000000
3.4943370786516854  0.000000  0.000000  0.000000  -26.040174856277368  6.756533486845079  -2.2419525280252475  57.20962404712872  11.727129055190863  7.408194185701022  -166.60614932606325  14.479005795729819  -145.4818438809021  17.29229276443557  120.000000
3.534501872659176  0.000000  0.000000  0.000000  -25.935086159541225  6.781696213270105  -2.355502040037086  57.09613637790529  11.55125725673327  7.395503848790239  -166.81825657269883  14.025798176459576  -145.4607423753778  17.204823312375453  120.000000
3.574666666666667  0.000000  0.000000  0.000000  -25.80784312537095  6.796900945897904  -2.4949491943829405  56.98980246357625  11.354611987338828  7.3893549384880854  -167.19357142120134  13.448010315007906  -145.33593602528128  17.121094445202203  120.000000
